<?xml version="1.0" encoding="utf-8"?>
<!-- Generator: Adobe Illustrator 19.2.1, SVG Export Plug-In . SVG Version: 6.00 Build 0)  -->
<svg version="1.1" id="layer" xmlns="http://www.w3.org/2000/svg" xmlns:xlink="http://www.w3.org/1999/xlink" x="0px" y="0px"
	 viewBox="0 0 652 652" style="enable-background:new 0 0 652 652;" xml:space="preserve">
<style type="text/css">
	.st0{fill:#02303A;}
</style>
<path class="st0" d="M197.9,346.4v19c-2.3,1.7-4.9,3-7.6,3.8c-2.8,0.8-5.7,1.2-8.7,1.2c-3.5,0.1-7.1-0.6-10.4-1.8
	c-3-1.1-5.7-2.8-8-5c-2.2-2.1-3.9-4.7-5.1-7.6c-1.2-3.1-1.8-6.3-1.8-9.6c0-3.3,0.5-6.6,1.7-9.7c1.1-2.8,2.7-5.4,4.9-7.6
	c2.2-2.2,4.8-3.8,7.7-4.9c3.2-1.2,6.7-1.8,10.1-1.8c1.8,0,3.6,0.2,5.3,0.5c1.6,0.3,3.1,0.7,4.6,1.2c1.4,0.5,2.7,1.2,3.9,1.9
	c1.1,0.7,2.2,1.6,3.2,2.5l-2.5,4c-0.3,0.6-0.9,1-1.5,1.1c-0.7,0.1-1.4,0-2-0.5l-2.1-1.2c-0.8-0.4-1.6-0.8-2.4-1.1
	c-1-0.3-2-0.6-3-0.8c-1.2-0.2-2.5-0.3-3.8-0.3c-2.2,0-4.3,0.4-6.3,1.2c-1.8,0.7-3.5,1.9-4.8,3.3c-1.4,1.5-2.4,3.3-3,5.2
	c-0.7,2.2-1.1,4.5-1.1,6.8c0,2.4,0.4,4.9,1.1,7.2c0.7,2,1.8,3.8,3.2,5.4c1.4,1.5,3.1,2.6,5.1,3.3c2.1,0.8,4.3,1.2,6.6,1.1
	c1.6,0,3.1-0.2,4.6-0.5c1.4-0.4,2.7-0.9,4-1.5v-8.5h-5.9c-0.5,0-1-0.1-1.4-0.5c-0.3-0.3-0.5-0.7-0.5-1.1v-4.9H197.9z M212.1,342.4
	c0.9-1.8,2.2-3.4,3.7-4.7c1.4-1.1,3.2-1.7,5.1-1.6c1.3-0.1,2.6,0.3,3.7,1l-0.5,6c-0.1,0.3-0.2,0.6-0.5,0.8c-0.2,0.2-0.5,0.3-0.8,0.2
	c-0.5,0-1-0.1-1.4-0.2c-0.6-0.1-1.2-0.2-1.9-0.2c-0.8,0-1.6,0.1-2.4,0.4c-0.7,0.3-1.3,0.6-1.9,1.1c-0.6,0.5-1.1,1.1-1.5,1.8
	c-0.5,0.8-0.9,1.5-1.2,2.4v20.5h-8v-33.3h4.7c1-0.2,2.1,0.4,2.3,1.4c0,0.2,0.1,0.4,0,0.6L212.1,342.4z M227.6,341.3
	c3.8-3.5,8.7-5.3,13.8-5.2c1.8,0,3.6,0.3,5.2,0.9c1.5,0.6,2.8,1.5,3.9,2.7c1.1,1.2,1.9,2.6,2.4,4.1c0.6,1.7,0.8,3.4,0.8,5.2v21h-3.6
	c-0.6,0-1.2-0.1-1.8-0.3c-0.5-0.3-0.8-0.8-1-1.4l-0.7-2.4c-0.8,0.7-1.6,1.4-2.5,2c-0.8,0.6-1.6,1-2.5,1.4c-0.9,0.4-1.8,0.7-2.7,0.9
	c-1.1,0.2-2.2,0.3-3.3,0.3c-1.3,0-2.6-0.2-3.9-0.6c-1.1-0.3-2.2-0.9-3.1-1.7c-0.9-0.8-1.6-1.7-2-2.8c-0.5-1.2-0.7-2.6-0.7-3.9
	c0-0.9,0.1-1.7,0.4-2.5c0.3-0.9,0.8-1.7,1.4-2.4c0.7-0.8,1.6-1.6,2.5-2.1c1.2-0.7,2.4-1.3,3.7-1.7c1.7-0.5,3.4-1,5.2-1.2
	c2.2-0.3,4.5-0.5,6.8-0.6v-2c0.2-1.8-0.3-3.5-1.4-4.9c-1.1-1.1-2.6-1.7-4.1-1.6c-1.1,0-2.2,0.1-3.2,0.5c-0.8,0.3-1.5,0.6-2.3,1
	l-1.8,1c-0.5,0.3-1.2,0.5-1.8,0.5c-0.5,0-1-0.1-1.4-0.4c-0.4-0.3-0.7-0.6-0.9-1L227.6,341.3z M245.9,355.7c-2,0.1-3.9,0.3-5.8,0.6
	c-1.3,0.2-2.6,0.6-3.8,1.1c-0.8,0.3-1.5,0.9-2,1.6c-0.4,0.6-0.6,1.3-0.6,2c-0.1,1.1,0.4,2.3,1.3,3c1,0.6,2.1,1,3.3,0.9
	c1.5,0,2.9-0.3,4.3-0.9c1.3-0.7,2.5-1.6,3.5-2.7V355.7z M290.2,321.7v48.2h-4.9c-0.9,0.1-1.8-0.5-2-1.5l-0.7-3.2
	c-1.3,1.5-2.9,2.8-4.6,3.7c-1.9,1-4,1.4-6.1,1.4c-3.5,0.1-6.8-1.6-8.9-4.4c-1.2-1.6-2-3.4-2.5-5.3c-0.6-2.4-0.9-4.8-0.9-7.3
	c0-2.3,0.3-4.6,1-6.8c0.6-2,1.6-3.8,2.9-5.5c1.2-1.5,2.8-2.8,4.5-3.6c1.8-0.9,3.9-1.4,5.9-1.4c1.6,0,3.3,0.3,4.8,0.9
	c1.3,0.6,2.5,1.4,3.5,2.4v-17.5H290.2z M282.2,345.1c-0.8-1-1.8-1.8-3-2.3c-1.1-0.5-2.3-0.7-3.5-0.7c-1.1,0-2.3,0.2-3.3,0.7
	c-1,0.5-1.8,1.2-2.5,2.1c-0.8,1.1-1.3,2.2-1.6,3.5c-0.4,1.6-0.6,3.3-0.5,5c0,1.7,0.1,3.3,0.5,4.9c0.2,1.2,0.7,2.3,1.4,3.3
	c0.5,0.8,1.3,1.4,2.1,1.8c0.9,0.4,1.9,0.6,2.8,0.6c1.5,0,3-0.3,4.3-1c1.3-0.8,2.4-1.8,3.3-3L282.2,345.1z M306.2,321.7v48.2h-8
	v-48.2H306.2z M320.4,354.3c0.1,1.5,0.4,3,0.9,4.4c0.4,1.1,1.1,2.2,1.9,3.1c0.8,0.8,1.7,1.4,2.7,1.8c1.1,0.4,2.3,0.6,3.6,0.6
	c1.1,0,2.3-0.1,3.4-0.5c0.8-0.3,1.7-0.6,2.5-1c0.7-0.4,1.4-0.7,1.9-1c0.5-0.3,1-0.4,1.5-0.5c0.6,0,1.2,0.2,1.5,0.8l2.3,3
	c-0.9,1-1.9,1.9-3,2.6c-1.1,0.7-2.2,1.3-3.5,1.7c-1.2,0.4-2.4,0.7-3.7,0.9c-1.2,0.2-2.4,0.3-3.6,0.3c-2.2,0-4.4-0.4-6.5-1.1
	c-2-0.7-3.7-1.9-5.2-3.4c-1.5-1.6-2.7-3.5-3.5-5.6c-0.9-2.5-1.3-5.1-1.3-7.8c0-2.2,0.4-4.4,1.1-6.4c0.7-1.9,1.8-3.7,3.2-5.2
	c1.4-1.5,3.1-2.7,5-3.5c4-1.6,8.4-1.7,12.5-0.3c1.7,0.6,3.3,1.6,4.6,2.9c1.3,1.4,2.3,3,3,4.7c0.8,2.1,1.1,4.2,1.1,6.4
	c0.1,0.8-0.1,1.7-0.4,2.4c-0.3,0.5-0.9,0.7-1.5,0.6H320.4z M335.7,349.4c0-1-0.1-2-0.4-2.9c-0.3-0.9-0.7-1.7-1.4-2.4
	c-0.6-0.7-1.4-1.3-2.2-1.6c-2.9-1.2-6.2-0.6-8.6,1.4c-1.4,1.5-2.3,3.5-2.5,5.6L335.7,349.4z M380.7,324c2.3,0,4.6,0.2,6.8,0.8
	c1.7,0.4,3.4,1.2,4.8,2.3c1.2,1,2.1,2.3,2.7,3.7c0.6,1.6,0.9,3.2,0.9,4.9c0,1.2-0.2,2.4-0.6,3.5c-0.4,1.1-1,2.2-1.8,3.1
	c-0.8,1-1.8,1.8-2.9,2.5c-1.2,0.7-2.6,1.3-4,1.6c3.1,0.3,6,1.5,8.4,3.6c2,1.9,3,4.6,2.9,7.4c0,1.8-0.3,3.6-1,5.2
	c-0.7,1.5-1.7,2.9-3,4c-1.4,1.2-3.1,2-4.8,2.5c-2.1,0.6-4.3,0.9-6.5,0.9h-14.9v-46H380.7z M370.8,326.6v18.9h10
	c1.9,0,3.7-0.2,5.5-0.8c1.4-0.5,2.6-1.2,3.7-2.1c0.9-0.8,1.7-1.9,2.1-3c0.4-1.1,0.7-2.3,0.7-3.5c0.2-2.7-0.9-5.3-2.9-7
	c-2-1.6-5-2.4-9.1-2.4H370.8z M382.4,367.2c4,0,7.1-0.9,9.1-2.6c3-2.9,3.9-7.4,2.3-11.3c-0.6-1.2-1.4-2.2-2.4-3
	c-1.1-0.9-2.4-1.5-3.8-1.9c-1.7-0.4-3.4-0.7-5.2-0.6h-11.6v19.4L382.4,367.2z M431.4,337.7v32.3h-1.7c-0.5,0.1-0.9-0.2-1-0.7
	c0,0,0-0.1,0-0.1l-0.3-4.8c-1.4,1.8-3.2,3.3-5.2,4.5c-2,1.1-4.2,1.7-6.5,1.7c-1.6,0-3.2-0.2-4.7-0.8c-1.3-0.5-2.4-1.4-3.3-2.4
	c-0.9-1.1-1.6-2.4-2-3.8c-0.5-1.6-0.7-3.4-0.7-5.1v-20.6h3.1v20.6c-0.2,2.5,0.6,5.1,2.1,7.1c1.6,1.8,3.9,2.8,6.3,2.6
	c2.1,0,4.1-0.6,5.9-1.6c1.9-1.2,3.6-2.7,4.9-4.5v-24.2H431.4z M446.8,326.5c0,0.4-0.1,0.7-0.2,1.1c-0.2,0.3-0.4,0.6-0.6,0.9
	c-0.3,0.3-0.6,0.5-0.9,0.6c-0.7,0.3-1.5,0.3-2.2,0c-0.7-0.3-1.2-0.8-1.5-1.5c-0.2-0.3-0.2-0.7-0.2-1.1c0-0.4,0.1-0.8,0.2-1.1
	c0.1-0.3,0.4-0.7,0.6-0.9c0.3-0.3,0.6-0.5,0.9-0.6c0.7-0.3,1.5-0.3,2.2,0c0.6,0.3,1.2,0.8,1.4,1.5
	C446.6,325.7,446.7,326.1,446.8,326.5L446.8,326.5z M445.4,337.7v32.3h-3.1v-32.3H445.4z M459.8,322.7v47.2h-3.1v-47.2L459.8,322.7z
	 M495.8,322.7v47.2h-1.7c-0.5,0-0.9-0.3-1-0.8c0,0,0,0,0,0l-0.3-5.1c-1.3,1.9-3,3.4-5,4.6c-1.9,1.1-4.2,1.7-6.4,1.7
	c-3.6,0.2-7-1.3-9.3-4.1c-2.2-2.7-3.3-6.9-3.3-12.4c0-2.2,0.3-4.5,0.9-6.6c0.6-1.9,1.5-3.7,2.7-5.3c1.2-1.5,2.7-2.7,4.4-3.6
	c1.9-0.9,3.9-1.4,6-1.4c2-0.1,3.9,0.4,5.7,1.2c1.7,0.8,3.1,2.1,4.2,3.6v-19.1L495.8,322.7z M492.8,344.6c-1-1.6-2.4-3-4.1-3.9
	c-1.6-0.8-3.4-1.2-5.2-1.1c-1.7,0-3.4,0.3-5,1c-1.4,0.7-2.7,1.7-3.6,2.9c-1,1.4-1.7,2.9-2.2,4.5c-0.5,1.9-0.7,3.9-0.7,5.8
	c0,4.8,0.9,8.3,2.7,10.6c1.8,2.3,4.7,3.6,7.6,3.4c2.1,0,4.1-0.6,5.8-1.7c1.9-1.2,3.4-2.8,4.6-4.6L492.8,344.6z M553.5,326.8h-16.1
	v43.1H534v-43.1h-16.2V324h35.7V326.8z M564.4,337.1c2.1,0,4.2,0.4,6.2,1.2c1.8,0.8,3.4,1.9,4.6,3.4c1.3,1.5,2.3,3.3,2.9,5.2
	c1.3,4.5,1.3,9.2,0,13.7c-0.6,1.9-1.6,3.7-2.9,5.2c-1.3,1.5-2.9,2.6-4.6,3.3c-4,1.5-8.4,1.5-12.4,0c-1.8-0.7-3.4-1.9-4.6-3.3
	c-1.3-1.5-2.3-3.3-2.9-5.2c-1.3-4.5-1.3-9.2,0-13.7c0.6-1.9,1.6-3.7,2.9-5.2c1.3-1.5,2.9-2.6,4.6-3.4
	C560.2,337.5,562.3,337.1,564.4,337.1L564.4,337.1z M564.4,367.9c1.7,0,3.5-0.3,5-1c1.4-0.6,2.6-1.6,3.6-2.8c1-1.3,1.8-2.8,2.2-4.5
	c1-3.8,1-7.9,0-11.7c-0.4-1.6-1.1-3.2-2.2-4.5c-0.9-1.2-2.2-2.2-3.6-2.9c-3.2-1.3-6.9-1.3-10.1,0c-1.4,0.6-2.7,1.6-3.6,2.9
	c-1,1.3-1.7,2.9-2.2,4.5c-1,3.8-1,7.9,0,11.7c0.4,1.6,1.2,3.1,2.2,4.5c1,1.2,2.2,2.2,3.6,2.8C561,367.6,562.7,367.9,564.4,367.9
	L564.4,367.9z M600.7,337.1c2.1,0,4.3,0.4,6.2,1.2c1.8,0.8,3.4,1.9,4.6,3.4c1.3,1.5,2.3,3.3,2.9,5.2c1.3,4.5,1.3,9.2,0,13.7
	c-0.6,1.9-1.6,3.7-2.9,5.2c-1.3,1.5-2.8,2.6-4.6,3.3c-4,1.5-8.4,1.5-12.4,0c-1.8-0.7-3.4-1.9-4.6-3.3c-1.3-1.5-2.3-3.3-2.9-5.2
	c-1.3-4.5-1.3-9.2,0-13.7c0.6-1.9,1.6-3.7,2.9-5.2c1.3-1.5,2.9-2.6,4.6-3.4C596.4,337.5,598.5,337.1,600.7,337.1z M600.7,367.9
	c1.7,0,3.5-0.3,5.1-1c1.4-0.6,2.6-1.6,3.6-2.8c1-1.3,1.7-2.8,2.2-4.5c0.9-3.8,0.9-7.9,0-11.7c-0.4-1.6-1.2-3.2-2.2-4.5
	c-0.9-1.2-2.2-2.2-3.6-2.9c-3.2-1.3-6.9-1.3-10.1,0c-1.4,0.7-2.6,1.6-3.6,2.9c-1,1.3-1.8,2.9-2.2,4.5c-1,3.8-1,7.9,0,11.7
	c0.4,1.6,1.2,3.1,2.2,4.5c1,1.2,2.2,2.2,3.6,2.8C597.2,367.6,598.9,367.9,600.7,367.9z M627.5,322.7v47.2h-3.1v-47.2H627.5z
	 M139.4,288.4c-7.2-7.2-18.7-7.4-26.1-0.5c-0.4,0.3-0.6,0.8-0.6,1.3c0,0.5,0.2,1,0.5,1.3l2.3,2.4c0.6,0.6,1.6,0.7,2.3,0.2
	c1.9-1.4,4.1-2.2,6.4-2.1c5.9,0,10.8,4.8,10.8,10.7c0,2.9-1.1,5.6-3.2,7.7c-14.9,14.9-34.8-26.8-79.9-5.4c-3.1,1.4-4.4,5.1-3,8.2
	c0.1,0.1,0.1,0.3,0.2,0.4l7.7,13.4c1.7,2.9,5.4,3.9,8.3,2.3l0.2-0.1l-0.2,0.1l3.4-1.9c3.8-2.4,7.4-5.1,10.8-8.1
	c0.7-0.6,1.8-0.6,2.5,0l0,0c0.4,0.3,0.7,0.8,0.7,1.4c0,0.5-0.2,1-0.6,1.4c-3.5,3.1-7.4,6-11.4,8.4h-0.1l-3.4,1.9
	c-1.5,0.8-3.1,1.3-4.8,1.2c-3.5,0-6.7-1.9-8.5-4.9l-7.3-12.6c-14.1,9.9-22.6,29-18,53.3c0.2,0.8,0.9,1.4,1.7,1.4h8.3
	c0.9,0,1.7-0.7,1.8-1.6c0.8-6.7,6.9-11.4,13.6-10.6c5.5,0.7,9.9,5.1,10.6,10.6c0.1,0.9,0.9,1.6,1.8,1.6h8.1c0.9,0,1.7-0.7,1.8-1.6
	c0.9-6.7,7-11.4,13.7-10.5c5.5,0.7,9.8,5,10.5,10.5c0.1,0.9,0.9,1.6,1.8,1.6h8c1,0,1.8-0.8,1.8-1.7c0.2-11.3,3.2-24.3,11.9-30.8
	C154.3,314.8,146.4,295.5,139.4,288.4z M108.7,322.5l-5.7-2.9l0,0c0-2,1.6-3.6,3.6-3.6c2,0,3.6,1.6,3.6,3.6
	C110.2,320.8,109.6,321.9,108.7,322.5L108.7,322.5z"/>
</svg>
